<mxfile host="app.diagrams.net" modified="2022-11-09T13:46:28.843Z" agent="5.0 (Macintosh; Intel Mac OS X 10_15_7) AppleWebKit/537.36 (KHTML, like Gecko) Chrome/107.0.0.0 Safari/537.36" etag="wrcWwCUjfDwXK_KD8MIL" version="20.5.1" type="github">
  <diagram id="pAf8jReuKVK8WK95M-2W" name="第 1 页">
    <mxGraphModel dx="1554" dy="809" grid="1" gridSize="10" guides="1" tooltips="1" connect="1" arrows="1" fold="1" page="1" pageScale="1" pageWidth="827" pageHeight="1169" math="0" shadow="0">
      <root>
        <mxCell id="0" />
        <mxCell id="1" parent="0" />
        <mxCell id="GyUYu7sIh_bm8mKdJfx6-1" value="Pulsar集群" style="rounded=0;whiteSpace=wrap;html=1;" vertex="1" parent="1">
          <mxGeometry x="274" y="420" width="316" height="60" as="geometry" />
        </mxCell>
        <mxCell id="GyUYu7sIh_bm8mKdJfx6-2" value="" style="rounded=0;whiteSpace=wrap;html=1;" vertex="1" parent="1">
          <mxGeometry x="274" y="300" width="316" height="60" as="geometry" />
        </mxCell>
        <mxCell id="GyUYu7sIh_bm8mKdJfx6-3" value="Admin Client" style="rounded=0;whiteSpace=wrap;html=1;" vertex="1" parent="1">
          <mxGeometry x="414" y="310" width="80" height="40" as="geometry" />
        </mxCell>
        <mxCell id="GyUYu7sIh_bm8mKdJfx6-5" value="Pub/Sub Client" style="rounded=0;whiteSpace=wrap;html=1;" vertex="1" parent="1">
          <mxGeometry x="500" y="310" width="80" height="40" as="geometry" />
        </mxCell>
        <mxCell id="GyUYu7sIh_bm8mKdJfx6-6" value="&lt;font style=&quot;font-size: 11px;&quot;&gt;百川Pulsar Api层&lt;/font&gt;" style="text;html=1;resizable=0;autosize=1;align=center;verticalAlign=middle;points=[];fillColor=none;strokeColor=none;rounded=0;" vertex="1" parent="1">
          <mxGeometry x="290" y="315" width="110" height="30" as="geometry" />
        </mxCell>
        <mxCell id="GyUYu7sIh_bm8mKdJfx6-7" value="" style="endArrow=classic;startArrow=classic;html=1;rounded=0;fontSize=12;" edge="1" parent="1">
          <mxGeometry width="50" height="50" relative="1" as="geometry">
            <mxPoint x="457" y="420" as="sourcePoint" />
            <mxPoint x="457" y="360" as="targetPoint" />
          </mxGeometry>
        </mxCell>
        <mxCell id="GyUYu7sIh_bm8mKdJfx6-8" value="admin 操作" style="edgeLabel;html=1;align=center;verticalAlign=middle;resizable=0;points=[];fontSize=12;" vertex="1" connectable="0" parent="GyUYu7sIh_bm8mKdJfx6-7">
          <mxGeometry x="0.1333" y="-2" relative="1" as="geometry">
            <mxPoint as="offset" />
          </mxGeometry>
        </mxCell>
        <mxCell id="GyUYu7sIh_bm8mKdJfx6-9" value="" style="endArrow=classic;startArrow=classic;html=1;rounded=0;fontSize=12;" edge="1" parent="1">
          <mxGeometry width="50" height="50" relative="1" as="geometry">
            <mxPoint x="541" y="420" as="sourcePoint" />
            <mxPoint x="541" y="360" as="targetPoint" />
          </mxGeometry>
        </mxCell>
        <mxCell id="GyUYu7sIh_bm8mKdJfx6-10" value="生产/消费" style="edgeLabel;html=1;align=center;verticalAlign=middle;resizable=0;points=[];fontSize=12;" vertex="1" connectable="0" parent="GyUYu7sIh_bm8mKdJfx6-9">
          <mxGeometry x="0.1333" y="-2" relative="1" as="geometry">
            <mxPoint as="offset" />
          </mxGeometry>
        </mxCell>
        <mxCell id="GyUYu7sIh_bm8mKdJfx6-12" value="百川平台" style="rounded=0;whiteSpace=wrap;html=1;" vertex="1" parent="1">
          <mxGeometry x="274" y="180" width="196" height="60" as="geometry" />
        </mxCell>
        <mxCell id="GyUYu7sIh_bm8mKdJfx6-15" value="" style="endArrow=classic;html=1;rounded=0;fontSize=12;" edge="1" parent="1">
          <mxGeometry width="50" height="50" relative="1" as="geometry">
            <mxPoint x="372" y="300" as="sourcePoint" />
            <mxPoint x="372" y="240" as="targetPoint" />
          </mxGeometry>
        </mxCell>
        <mxCell id="GyUYu7sIh_bm8mKdJfx6-16" value="获取Rest Client地址" style="edgeLabel;html=1;align=center;verticalAlign=middle;resizable=0;points=[];fontSize=12;" vertex="1" connectable="0" parent="GyUYu7sIh_bm8mKdJfx6-15">
          <mxGeometry x="-0.1932" relative="1" as="geometry">
            <mxPoint as="offset" />
          </mxGeometry>
        </mxCell>
        <mxCell id="GyUYu7sIh_bm8mKdJfx6-19" value="业务应用" style="rounded=0;whiteSpace=wrap;html=1;fontSize=12;" vertex="1" parent="1">
          <mxGeometry x="490" y="180" width="100" height="60" as="geometry" />
        </mxCell>
        <mxCell id="GyUYu7sIh_bm8mKdJfx6-20" value="" style="endArrow=classic;startArrow=classic;html=1;rounded=0;fontSize=12;" edge="1" parent="1">
          <mxGeometry width="50" height="50" relative="1" as="geometry">
            <mxPoint x="540.5" y="300" as="sourcePoint" />
            <mxPoint x="540.5" y="240" as="targetPoint" />
          </mxGeometry>
        </mxCell>
        <mxCell id="GyUYu7sIh_bm8mKdJfx6-21" value="通过 Http 生产/消费" style="edgeLabel;html=1;align=center;verticalAlign=middle;resizable=0;points=[];fontSize=12;" vertex="1" connectable="0" parent="GyUYu7sIh_bm8mKdJfx6-20">
          <mxGeometry x="0.1333" y="-2" relative="1" as="geometry">
            <mxPoint as="offset" />
          </mxGeometry>
        </mxCell>
      </root>
    </mxGraphModel>
  </diagram>
</mxfile>
